<?xml version="1.0" encoding="UTF-8"?>
<svg version="1.1" xmlns="http://www.w3.org/2000/svg" width="259" height="90">
<path d="M0 0 C85.47 0 170.94 0 259 0 C259 29.7 259 59.4 259 90 C173.53 90 88.06 90 0 90 C0 60.3 0 30.6 0 0 Z " fill="#FDFDFE" transform="translate(0,0)"/>
<path d="M0 0 C3.47643281 1.24158315 5.04095955 3.29498056 7.625 5.9375 C8.73136289 6.90340146 9.84225622 7.86413203 10.95703125 8.8203125 C16.1970457 13.575031 20.74926244 17.7060778 21.50390625 25.04296875 C21.63507793 29.74145948 21.31035118 34.28966063 20.625 38.9375 C19.625 39.9375 19.625 39.9375 16.24609375 40.03515625 C14.85152923 40.02848369 13.45698257 40.01652532 12.0625 40 C11.35158203 39.99548828 10.64066406 39.99097656 9.90820312 39.98632812 C8.14709987 39.97450864 6.38603964 39.95657263 4.625 39.9375 C4.295 35.9775 3.965 32.0175 3.625 27.9375 C0.325 27.9375 -2.975 27.9375 -6.375 27.9375 C-6.705 31.8975 -7.035 35.8575 -7.375 39.9375 C-9.68743792 39.96435412 -11.9999627 39.98382841 -14.3125 40 C-15.60027344 40.01160156 -16.88804688 40.02320313 -18.21484375 40.03515625 C-21.375 39.9375 -21.375 39.9375 -22.375 38.9375 C-23.72316662 31.42412196 -25.00339781 23.11038766 -20.75048828 16.35839844 C-6.90576335 -0.18173061 -6.90576335 -0.18173061 0 0 Z " fill="#625FC8" transform="translate(40.375,24.0625)"/>
<path d="M0 0 C2.31 0 4.62 0 7 0 C7 0.66 7 1.32 7 2 C7.99 1.34 8.98 0.68 10 0 C12.375 -0.265625 12.375 -0.265625 15 -0.25 C15.86625 -0.25515625 16.7325 -0.2603125 17.625 -0.265625 C20 0 20 0 23 2 C23 2.66 23 3.32 23 4 C23.99 4 24.98 4 26 4 C26 3.34 26 2.68 26 2 C30.22181892 -0.81454595 34.04030209 -0.80684081 39 0 C42.0625 2.4375 42.0625 2.4375 44 5 C44.495 5.495 44.495 5.495 45 6 C45.08700342 7.63472882 45.10701063 9.27314055 45.09765625 10.91015625 C45.09443359 11.89951172 45.09121094 12.88886719 45.08789062 13.90820312 C45.07532227 15.46958008 45.07532227 15.46958008 45.0625 17.0625 C45.05798828 18.10728516 45.05347656 19.15207031 45.04882812 20.22851562 C45.03699913 22.8190666 45.02051689 25.40950559 45 28 C42.69 28 40.38 28 38 28 C37.97494385 27.39937744 37.9498877 26.79875488 37.92407227 26.17993164 C37.8084472 23.47388563 37.68557064 20.76821717 37.5625 18.0625 C37.52318359 17.11697266 37.48386719 16.17144531 37.44335938 15.19726562 C37.40146484 14.29814453 37.35957031 13.39902344 37.31640625 12.47265625 C37.26141968 11.22367554 37.26141968 11.22367554 37.20532227 9.94946289 C37.20632897 7.99661142 37.20632897 7.99661142 36 7 C33.03 7 30.06 7 27 7 C26.67 13.93 26.34 20.86 26 28 C23.69 28 21.38 28 19 28 C18.67 21.07 18.34 14.14 18 7 C15.03 7 12.06 7 9 7 C7.41596476 8.58403524 7.78025065 10.2771638 7.68359375 12.47265625 C7.64169922 13.37177734 7.59980469 14.27089844 7.55664062 15.19726562 C7.49766602 16.61555664 7.49766602 16.61555664 7.4375 18.0625 C7.37272461 19.4865918 7.37272461 19.4865918 7.30664062 20.93945312 C7.20020724 23.29281353 7.09818992 25.64628354 7 28 C4.69 28 2.38 28 0 28 C0 18.76 0 9.52 0 0 Z " fill="#6764CA" transform="translate(141,35)"/>
<path d="M0 0 C4.61803133 1.76860774 6.83605984 4.59197375 9 9 C9.80304396 13.98860642 9.53454205 17.8240075 7.4375 22.4375 C3.57683148 26.49615153 -0.52771715 28.10943448 -6.0625 28.4375 C-10.60205754 27.93310472 -12.5928484 27.01097118 -16 24 C-19.06026699 19.71562622 -19.62840421 15.62888754 -19.49609375 10.4765625 C-18.66099076 6.30762318 -16.18070048 3.69453123 -13 1 C-9.07218861 -0.96390569 -4.29194058 -0.335891 0 0 Z " fill="#6562C9" transform="translate(127,35)"/>
<path d="M0 0 C1.77206192 0.00015919 3.54412846 0.00585754 5.31616211 0.01586914 C6.24698105 0.01728409 7.17779999 0.01869904 8.13682556 0.02015686 C11.12241777 0.02577367 14.10793615 0.03832899 17.09350586 0.05102539 C19.11238499 0.05603823 21.13126529 0.06060151 23.15014648 0.06469727 C28.11046158 0.07574856 33.07072118 0.09302444 38.03100586 0.11352539 C38.52600586 1.10352539 38.52600586 1.10352539 39.03100586 2.11352539 C37.88647461 4.67993164 37.88647461 4.67993164 36.21850586 7.67602539 C35.40446289 9.16295898 35.40446289 9.16295898 34.57397461 10.67993164 C33.03100586 13.11352539 33.03100586 13.11352539 31.03100586 14.11352539 C29.67255393 14.20255032 28.30984611 14.23112671 26.94848633 14.22705078 C25.68740555 14.22693748 25.68740555 14.22693748 24.40084839 14.2268219 C23.03828415 14.21907997 23.03828415 14.21907997 21.64819336 14.21118164 C20.71878937 14.20976669 19.78938538 14.20835175 18.83181763 14.20689392 C15.85651462 14.20128592 12.88128622 14.18873207 9.90600586 14.17602539 C7.89168403 14.17101142 5.87736102 14.16644834 3.86303711 14.16235352 C-1.08100216 14.15131389 -6.02498549 14.13404388 -10.96899414 14.11352539 C-10.31120055 10.4806425 -9.50281138 7.96154933 -7.46899414 4.86352539 C-7.02555664 4.17774414 -6.58211914 3.49196289 -6.12524414 2.78540039 C-4.28362933 0.12252492 -4.28362933 0.12252492 0 0 Z " fill="#6764CA" transform="translate(21.968994140625,66.886474609375)"/>
<path d="M0 0 C2.31 0 4.62 0 7 0 C7 4.62 7 9.24 7 14 C11.95 14 16.9 14 22 14 C22 9.38 22 4.76 22 0 C24.31 0 26.62 0 29 0 C29 11.55 29 23.1 29 35 C26.69 35 24.38 35 22 35 C22 30.05 22 25.1 22 20 C17.05 20 12.1 20 7 20 C7 24.95 7 29.9 7 35 C4.69 35 2.38 35 0 35 C0 23.45 0 11.9 0 0 Z " fill="#6663CA" transform="translate(74,28)"/>
<path d="M0 0 C3.54590253 1.95594624 6.18288988 4.36577977 8 8 C8 10.64 8 13.28 8 16 C1.4 16 -5.2 16 -12 16 C-11.01 17.65 -10.02 19.3 -9 21 C-6.95714939 21.60024521 -6.95714939 21.60024521 -4.8125 21.3125 C-3.554375 21.209375 -2.29625 21.10625 -1 21 C-1 20.34 -1 19.68 -1 19 C1.64 19 4.28 19 7 19 C6.06026802 22.38303514 5.0726148 23.93446957 2.4375 26.3125 C-1.91212714 28.4477715 -5.24079251 28.84437552 -10 28 C-14.38544865 25.80727567 -17.23315916 23.61341775 -19 19 C-19.67230289 13.57177666 -19.69382324 9.36372154 -17.1875 4.4375 C-12.25032385 -1.06392486 -7.01439626 -1.0679984 0 0 Z " fill="#6664CA" transform="translate(210,35)"/>
<path d="M0 0 C3.1875 1.75 3.1875 1.75 5 4 C5 5.32 5 6.64 5 8 C2.125 8.125 2.125 8.125 -1 8 C-1.66 7.34 -2.32 6.68 -3 6 C-5.58354218 5.83312552 -5.58354218 5.83312552 -8 6 C-8.33 7.32 -8.66 8.64 -9 10 C-8.40832031 10.10957031 -7.81664062 10.21914063 -7.20703125 10.33203125 C1.85571852 12.15049491 1.85571852 12.15049491 5 15 C6.0625 18.375 6.0625 18.375 6 22 C3.91374661 25.42741629 2.8255689 26.72481037 -1 28 C-5.77825326 28.3916601 -8.10191565 28.44087777 -12.4375 26.3125 C-15.22067989 23.80084985 -15.79570164 22.6773705 -16 19 C-13.125 18.875 -13.125 18.875 -10 19 C-9.34 19.66 -8.68 20.32 -8 21 C-5.67724823 21.40047444 -3.34260643 21.7397104 -1 22 C-1 20.68 -1 19.36 -1 18 C-1.74765625 17.82984375 -2.4953125 17.6596875 -3.265625 17.484375 C-4.25046875 17.24203125 -5.2353125 16.9996875 -6.25 16.75 C-7.22453125 16.51796875 -8.1990625 16.2859375 -9.203125 16.046875 C-12.36507043 14.86335352 -13.88971379 13.61203259 -16 11 C-16.75187617 7.07353555 -16.32320201 5.51266526 -14.1875 2.125 C-9.55007978 -0.96661348 -5.42119383 -0.88592223 0 0 Z " fill="#6562C9" transform="translate(238,35)"/>
<path d="M0 0 C2.62331159 2.07578554 4.79113815 4.49565444 7 7 C7.5671875 7.63550781 8.134375 8.27101563 8.71875 8.92578125 C9.87373916 10.23564395 11.01817601 11.55488034 12.15234375 12.8828125 C13.48430507 14.40907684 14.85702874 15.90010297 16.25390625 17.3671875 C17.36572266 18.54667969 17.36572266 18.54667969 18.5 19.75 C19.1909375 20.46671875 19.881875 21.1834375 20.59375 21.921875 C22 24 22 24 21.71875 26.265625 C21.4815625 26.83796875 21.244375 27.4103125 21 28 C16.88262323 27.47941213 15.00997586 25.34887273 12.1875 22.4375 C10.87652344 21.08785156 10.87652344 21.08785156 9.5390625 19.7109375 C6.77772296 16.76267651 4.08812264 13.76955957 1.47265625 10.69140625 C0.04541597 9.05216211 -1.44512338 7.51774524 -3 6 C-7.89526444 7.18673077 -10.02705267 10.14160256 -13.10546875 13.84375 C-15.56670873 16.64499633 -18.29754488 18.99262939 -21.1484375 21.38671875 C-22.81936487 22.84261116 -24.27177279 24.35399854 -25.75 26 C-26.4925 26.66 -27.235 27.32 -28 28 C-30.3125 27.8125 -30.3125 27.8125 -32 27 C-31.5293976 22.7420795 -28.86118111 20.45973355 -25.94140625 17.61328125 C-25.43705551 17.11080368 -24.93270477 16.60832611 -24.41307068 16.09062195 C-23.34812983 15.03239056 -22.27960356 13.97775672 -21.20776367 12.92651367 C-19.564906 11.3148603 -17.93300585 9.69273386 -16.30273438 8.06835938 C-15.26624613 7.04103961 -14.22915696 6.01432571 -13.19140625 4.98828125 C-12.70176895 4.50289383 -12.21213165 4.01750641 -11.70765686 3.51741028 C-7.54570349 -0.55706491 -5.78485889 -1.7463725 0 0 Z " fill="#6562C9" transform="translate(44,13)"/>
<path d="M0 0 C0.9075 0.00257812 1.815 0.00515625 2.75 0.0078125 C4.11125 0.00394531 4.11125 0.00394531 5.5 0 C7.75 0.1328125 7.75 0.1328125 8.75 1.1328125 C8.89355117 5.13501903 8.79216403 9.12722933 8.75 13.1328125 C13.37 13.1328125 17.99 13.1328125 22.75 13.1328125 C22.75 13.4628125 22.75 13.7928125 22.75 14.1328125 C9.88 14.1328125 -2.99 14.1328125 -16.25 14.1328125 C-16.25 13.8028125 -16.25 13.4728125 -16.25 13.1328125 C-11.96 13.1328125 -7.67 13.1328125 -3.25 13.1328125 C-3.270625 11.1734375 -3.29125 9.2140625 -3.3125 7.1953125 C-3.33377188 5.17448374 -3.32244053 3.15245449 -3.25 1.1328125 C-2.25 0.1328125 -2.25 0.1328125 0 0 Z " fill="#F5F5FB" transform="translate(36.25,50.8671875)"/>
<path d="M0 0 C3.5625 0.5 3.5625 0.5 6 2.0625 C8.19271887 5.48314143 8.19257693 7.50951279 7.5625 11.5 C5.25052361 14.60465401 3.81966828 16.22403623 0 17.0625 C-3.37223771 16.2842913 -4.4947794 15.37810459 -6.4375 12.5 C-7.13944375 8.69390499 -6.88763189 5.55913385 -5.375 2 C-3.4375 0.5 -3.4375 0.5 0 0 Z " fill="#FAF9FD" transform="translate(121.4375,40.5)"/>
<path d="M0 0 C2.3125 1.875 2.3125 1.875 4 4 C4 4.66 4 5.32 4 6 C-0.29 6 -4.58 6 -9 6 C-7.65159422 0.60637689 -5.39176179 -0.78903831 0 0 Z " fill="#F4F4FB" transform="translate(207,40)"/>
</svg>
